<svg xmlns="http://www.w3.org/2000/svg" xmlns:xlink="http://www.w3.org/1999/xlink" width="2240" height="2240" viewBox="0 0 2240 2240"><rect width="100%" height="100%" fill="#DDDDDD"/><path d="M509.47 1178.91L553.81 1178.91Q558.59 1178.91 561.40 1181.60Q564.21 1184.29 564.21 1188.71L564.21 1188.71L564.21 1206.40L445.66 1206.40L445.66 1196.60Q445.66 1193.61 446.92 1190.33Q448.17 1187.04 450.92 1184.41L450.92 1184.41L503.38 1131.83Q509.95 1125.14 515.15 1119.04Q520.35 1112.95 523.81 1106.97Q527.28 1101.00 529.13 1094.85Q530.98 1088.69 530.98 1081.88L530.98 1081.88Q530.98 1075.67 529.19 1070.95Q527.40 1066.22 524.11 1063.00Q520.83 1059.77 516.23 1058.16Q511.63 1056.55 505.89 1056.55L505.89 1056.55Q500.63 1056.55 496.15 1058.04Q491.67 1059.53 488.20 1062.22Q484.74 1064.91 482.35 1068.50Q479.96 1072.08 478.76 1076.38L478.76 1076.38Q476.73 1081.88 473.51 1083.67Q470.28 1085.46 464.18 1084.51L464.18 1084.51L448.65 1081.76Q450.44 1069.33 455.58 1059.95Q460.72 1050.57 468.43 1044.30Q476.13 1038.02 486.11 1034.86Q496.09 1031.69 507.56 1031.69L507.56 1031.69Q519.51 1031.69 529.43 1035.21Q539.35 1038.74 546.40 1045.19Q553.45 1051.65 557.39 1060.73Q561.34 1069.81 561.34 1080.92L561.34 1080.92Q561.34 1090.48 558.53 1098.61Q555.72 1106.74 551.00 1114.14Q546.28 1121.55 539.95 1128.48Q533.61 1135.42 526.68 1142.59L526.68 1142.59L487.73 1182.38Q493.34 1180.71 498.90 1179.81Q504.46 1178.91 509.47 1178.91L509.47 1178.91ZM648.09 1178.91L692.43 1178.91Q697.21 1178.91 700.02 1181.60Q702.83 1184.29 702.83 1188.71L702.83 1188.71L702.83 1206.40L584.28 1206.40L584.28 1196.60Q584.28 1193.61 585.54 1190.33Q586.79 1187.04 589.54 1184.41L589.54 1184.41L642 1131.83Q648.57 1125.14 653.77 1119.04Q658.97 1112.95 662.43 1106.97Q665.90 1101.00 667.75 1094.85Q669.60 1088.69 669.60 1081.88L669.60 1081.88Q669.60 1075.67 667.81 1070.95Q666.02 1066.22 662.73 1063.00Q659.45 1059.77 654.85 1058.16Q650.25 1056.55 644.51 1056.55L644.51 1056.55Q639.25 1056.55 634.77 1058.04Q630.29 1059.53 626.82 1062.22Q623.36 1064.91 620.97 1068.50Q618.58 1072.08 617.38 1076.38L617.38 1076.38Q615.35 1081.88 612.13 1083.67Q608.90 1085.46 602.80 1084.51L602.80 1084.51L587.27 1081.76Q589.06 1069.33 594.20 1059.95Q599.34 1050.57 607.05 1044.30Q614.75 1038.02 624.73 1034.86Q634.71 1031.69 646.18 1031.69L646.18 1031.69Q658.13 1031.69 668.05 1035.21Q677.97 1038.74 685.02 1045.19Q692.07 1051.65 696.01 1060.73Q699.96 1069.81 699.96 1080.92L699.96 1080.92Q699.96 1090.48 697.15 1098.61Q694.34 1106.74 689.62 1114.14Q684.90 1121.55 678.57 1128.48Q672.23 1135.42 665.30 1142.59L665.30 1142.59L626.35 1182.38Q631.96 1180.71 637.52 1179.81Q643.08 1178.91 648.09 1178.91L648.09 1178.91ZM746.32 1141.27L798.90 1141.27L798.90 1084.75Q798.90 1076.74 799.98 1067.06L799.98 1067.06L746.32 1141.27ZM824.60 1141.27L846.35 1141.27L846.35 1158.36Q846.35 1160.75 844.79 1162.48Q843.24 1164.21 840.37 1164.21L840.37 1164.21L824.60 1164.21L824.60 1206.40L798.90 1206.40L798.90 1164.21L726.01 1164.21Q723.02 1164.21 720.75 1162.36Q718.48 1160.51 717.88 1157.76L717.88 1157.76L714.78 1142.82L796.63 1033.48L824.60 1033.48L824.60 1141.27ZM985.08 1120L985.08 1120Q985.08 1142.59 980.24 1159.26Q975.41 1175.93 966.86 1186.80Q958.32 1197.67 946.67 1202.99Q935.01 1208.31 921.51 1208.31L921.51 1208.31Q908.01 1208.31 896.48 1202.99Q884.94 1197.67 876.46 1186.80Q867.97 1175.93 863.19 1159.26Q858.41 1142.59 858.41 1120L858.41 1120Q858.41 1097.30 863.19 1080.68Q867.97 1064.07 876.46 1053.20Q884.94 1042.33 896.48 1037.01Q908.01 1031.69 921.51 1031.69L921.51 1031.69Q935.01 1031.69 946.67 1037.01Q958.32 1042.33 966.86 1053.20Q975.41 1064.07 980.24 1080.68Q985.08 1097.30 985.08 1120ZM954.61 1120L954.61 1120Q954.61 1101.24 951.86 1088.93Q949.12 1076.62 944.51 1069.33Q939.91 1062.04 933.94 1059.11Q927.96 1056.19 921.51 1056.19L921.51 1056.19Q915.18 1056.19 909.26 1059.11Q903.35 1062.04 898.81 1069.33Q894.26 1076.62 891.58 1088.93Q888.89 1101.24 888.89 1120L888.89 1120Q888.89 1138.76 891.58 1151.07Q894.26 1163.38 898.81 1170.67Q903.35 1177.96 909.26 1180.89Q915.18 1183.81 921.51 1183.81L921.51 1183.81Q927.96 1183.81 933.94 1180.89Q939.91 1177.96 944.51 1170.67Q949.12 1163.38 951.86 1151.07Q954.61 1138.76 954.61 1120ZM1174.85 1166.84L1159.20 1182.26L1118.69 1141.75L1077.82 1182.50L1062.16 1167.08L1103.03 1126.09L1064.07 1087.14L1079.61 1071.60L1118.57 1110.56L1157.28 1071.84L1173.06 1087.38L1134.22 1126.21L1174.85 1166.84ZM1318.73 1178.91L1363.06 1178.91Q1367.84 1178.91 1370.65 1181.60Q1373.46 1184.29 1373.46 1188.71L1373.46 1188.71L1373.46 1206.40L1254.92 1206.40L1254.92 1196.60Q1254.92 1193.61 1256.17 1190.33Q1257.42 1187.04 1260.17 1184.41L1260.17 1184.41L1312.63 1131.83Q1319.21 1125.14 1324.40 1119.04Q1329.60 1112.95 1333.07 1106.97Q1336.53 1101.00 1338.39 1094.85Q1340.24 1088.69 1340.24 1081.88L1340.24 1081.88Q1340.24 1075.67 1338.45 1070.95Q1336.65 1066.22 1333.37 1063.00Q1330.08 1059.77 1325.48 1058.16Q1320.88 1056.55 1315.14 1056.55L1315.14 1056.55Q1309.89 1056.55 1305.40 1058.04Q1300.92 1059.53 1297.46 1062.22Q1293.99 1064.91 1291.60 1068.50Q1289.21 1072.08 1288.02 1076.38L1288.02 1076.38Q1285.99 1081.88 1282.76 1083.67Q1279.53 1085.46 1273.44 1084.51L1273.44 1084.51L1257.90 1081.76Q1259.70 1069.33 1264.83 1059.95Q1269.97 1050.57 1277.68 1044.30Q1285.39 1038.02 1295.37 1034.86Q1305.34 1031.69 1316.82 1031.69L1316.82 1031.69Q1328.77 1031.69 1338.68 1035.21Q1348.60 1038.74 1355.65 1045.19Q1362.70 1051.65 1366.65 1060.73Q1370.59 1069.81 1370.59 1080.92L1370.59 1080.92Q1370.59 1090.48 1367.78 1098.61Q1364.97 1106.74 1360.25 1114.14Q1355.53 1121.55 1349.20 1128.48Q1342.87 1135.42 1335.94 1142.59L1335.94 1142.59L1296.98 1182.38Q1302.60 1180.71 1308.15 1179.81Q1313.71 1178.91 1318.73 1178.91L1318.73 1178.91ZM1457.35 1178.91L1501.68 1178.91Q1506.46 1178.91 1509.27 1181.60Q1512.08 1184.29 1512.08 1188.71L1512.08 1188.71L1512.08 1206.40L1393.54 1206.40L1393.54 1196.60Q1393.54 1193.61 1394.79 1190.33Q1396.05 1187.04 1398.79 1184.41L1398.79 1184.41L1451.25 1131.83Q1457.83 1125.14 1463.02 1119.04Q1468.22 1112.95 1471.69 1106.97Q1475.15 1101.00 1477.01 1094.85Q1478.86 1088.69 1478.86 1081.88L1478.86 1081.88Q1478.86 1075.67 1477.07 1070.95Q1475.27 1066.22 1471.99 1063.00Q1468.70 1059.77 1464.10 1058.16Q1459.50 1056.55 1453.76 1056.55L1453.76 1056.55Q1448.51 1056.55 1444.02 1058.04Q1439.54 1059.53 1436.08 1062.22Q1432.61 1064.91 1430.22 1068.50Q1427.83 1072.08 1426.64 1076.38L1426.64 1076.38Q1424.61 1081.88 1421.38 1083.67Q1418.15 1085.46 1412.06 1084.51L1412.06 1084.51L1396.52 1081.76Q1398.32 1069.33 1403.45 1059.95Q1408.59 1050.57 1416.30 1044.30Q1424.01 1038.02 1433.99 1034.86Q1443.96 1031.69 1455.44 1031.69L1455.44 1031.69Q1467.39 1031.69 1477.31 1035.21Q1487.22 1038.74 1494.27 1045.19Q1501.32 1051.65 1505.27 1060.73Q1509.21 1069.81 1509.21 1080.92L1509.21 1080.92Q1509.21 1090.48 1506.40 1098.61Q1503.60 1106.74 1498.87 1114.14Q1494.15 1121.55 1487.82 1128.48Q1481.49 1135.42 1474.56 1142.59L1474.56 1142.59L1435.60 1182.38Q1441.22 1180.71 1446.77 1179.81Q1452.33 1178.91 1457.35 1178.91L1457.35 1178.91ZM1555.58 1141.27L1608.16 1141.27L1608.16 1084.75Q1608.16 1076.74 1609.23 1067.06L1609.23 1067.06L1555.58 1141.27ZM1633.85 1141.27L1655.60 1141.27L1655.60 1158.36Q1655.60 1160.75 1654.05 1162.48Q1652.49 1164.21 1649.62 1164.21L1649.62 1164.21L1633.85 1164.21L1633.85 1206.40L1608.16 1206.40L1608.16 1164.21L1535.26 1164.21Q1532.27 1164.21 1530.00 1162.36Q1527.73 1160.51 1527.14 1157.76L1527.14 1157.76L1524.03 1142.82L1605.89 1033.48L1633.85 1033.48L1633.85 1141.27ZM1794.34 1120L1794.34 1120Q1794.34 1142.59 1789.50 1159.26Q1784.66 1175.93 1776.11 1186.80Q1767.57 1197.67 1755.92 1202.99Q1744.27 1208.31 1730.76 1208.31L1730.76 1208.31Q1717.26 1208.31 1705.73 1202.99Q1694.20 1197.67 1685.71 1186.80Q1677.23 1175.93 1672.45 1159.26Q1667.67 1142.59 1667.67 1120L1667.67 1120Q1667.67 1097.30 1672.45 1080.68Q1677.23 1064.07 1685.71 1053.20Q1694.20 1042.33 1705.73 1037.01Q1717.26 1031.69 1730.76 1031.69L1730.76 1031.69Q1744.27 1031.69 1755.92 1037.01Q1767.57 1042.33 1776.11 1053.20Q1784.66 1064.07 1789.50 1080.68Q1794.34 1097.30 1794.34 1120ZM1763.87 1120L1763.87 1120Q1763.87 1101.24 1761.12 1088.93Q1758.37 1076.62 1753.77 1069.33Q1749.17 1062.04 1743.19 1059.11Q1737.22 1056.19 1730.76 1056.19L1730.76 1056.19Q1724.43 1056.19 1718.52 1059.11Q1712.60 1062.04 1708.06 1069.33Q1703.52 1076.62 1700.83 1088.93Q1698.14 1101.24 1698.14 1120L1698.14 1120Q1698.14 1138.76 1700.83 1151.07Q1703.52 1163.38 1708.06 1170.67Q1712.60 1177.96 1718.52 1180.89Q1724.43 1183.81 1730.76 1183.81L1730.76 1183.81Q1737.22 1183.81 1743.19 1180.89Q1749.17 1177.96 1753.77 1170.67Q1758.37 1163.38 1761.12 1151.07Q1763.87 1138.76 1763.87 1120Z" fill="#999999"/></svg>